<svg id="bg" xmlns="http://www.w3.org/2000/svg" width="720" height="720" viewBox="0 0 720 720">
  <defs>
    <style>
      .cls-1 {
        fill: #fff;
      }

      .cls-1, .cls-2 {
        fill-rule: evenodd;
      }

      .cls-2 {
        fill: #449eac;
      }
    </style>
  </defs>
  <path id="border-main" class="cls-1" d="M464,14V4M256,14V4H464V14H256ZM706,250V25.992L707.994,24l11.012,11L720,36.992,716,250H706ZM693.006,720L464,716V706H680.006L682,704.005V672.993l-1.994-2-16.012,1-0.994,1V682L663.994,683l7.012,1L672,684.993v10.012l-0.994.994H650.994L649,694l-1-33.864L650.142,658l43.864-1L696,659V717Zm-9.012-73L683,646,687,508l8-8,1,1V646l-0.994.994H683.994ZM687,212L683,73.992,683.994,73h11.012L696,73.992V219l-1,1ZM637.006,683L638,683.992v11.013l-0.994.994H500.994l-1-1,8-8ZM500.994,24H637.006L638,24.992V36L637.006,37,508,33l-8-8ZM650.142,62L648,59.856l1-33.864L650.994,24h20.012L672,24.992V35L671.006,36l-7.012,1L663,37.992V47L663.994,48l16.012,1L682,47V15.992L680.006,14H464V4L693.006,0,696,2.992V61l-1.994,2ZM24,717V659l1.994-2,43.864,1L72,660.14,71,694l-1.994,2H48.994L48,695.005V684.993L48.994,684l7.012-1L57,682v-9.011l-0.994-1-16.012-1-1.994,2v31.012L39.994,706H256v10L26.994,720Zm58.994-21L82,695.005V683.992L82.994,683,212,687l8,8-1,1H82.994Zm-58-49L24,646V500.992l1-1,8,8L37,646,36.006,647H24.994Zm-24,38L0,683,4,470H14V694l-1.994,2ZM720,683l-0.994,2-11.012,11L706,694V470h10ZM464,706v10M39.994,14L38,15.992V47L39.994,49l16.012-1L57,47V37.992L56.006,37l-7.012-1L48,35V24.992L48.994,24H69.006L71,25.992l1,33.864L69.858,62,25.994,63,24,61V2.992L26.994,0,256,4V14H39.994ZM0,36.992L0.994,35,12.006,24,14,25.992V250H4ZM36.006,73L37,73.992,33,212l-8,8-1-1V73.992L24.994,73H36.006Zm183-49,1,1-8,8L82.994,37,82,36V24.992L82.994,24H219.006ZM256,706v10H464V706H256ZM706,470h10V250H706V470ZM14,470H4V250H14V470Z"/>
  <path id="border-inner" class="cls-2" d="M696,485l-8,8V470h8v15Zm0-250-8-8v23h8V235ZM487,24l8,8H464V24h23ZM256,32V24H464v8H256ZM487,696l8-8H464v8h23ZM24,485l8,8V470H24v15Zm0-250,8-8v23H24V235ZM233,24l-8,8h31V24H233Zm0,672-8-8h31v8H233Zm23-8v8H464v-8H256ZM688,470h8V250h-8V470ZM32,470H24V250h8V470Z"/>
</svg>
